/* XPM */
static char * bottom_right_active_xpm[] = {
"25 25 3 1",
" 	c None",
".	c #D5E5FA",
"+	c #58606A",
"                   .....+",
"                   .....+",
"                   .....+",
"                   .....+",
"                   .....+",
"                   .....+",
"                   .....+",
"                   .....+",
"                   .....+",
"                   .....+",
"                   .....+",
"                   .....+",
"                   .....+",
"                   .....+",
"                   .....+",
"                   .....+",
"                   .....+",
"                   .....+",
"                   .....+",
"........................+",
"........................+",
"........................+",
".......................+ ",
"......................+  ",
"++++++++++++++++++++++   "};
