/* XPM */
static char * bottom_left_active_xpm[] = {
"25 25 3 1",
" 	c None",
".	c #58606A",
"+	c #D5E5FA",
".+++++                   ",
".+++++                   ",
".+++++                   ",
".+++++                   ",
".+++++                   ",
".+++++                   ",
".+++++                   ",
".+++++                   ",
".+++++                   ",
".+++++                   ",
".+++++                   ",
".+++++                   ",
".+++++                   ",
".+++++                   ",
".+++++                   ",
".+++++                   ",
".+++++                   ",
".+++++                   ",
".+++++                   ",
".++++++++++++++++++++++++",
".++++++++++++++++++++++++",
".++++++++++++++++++++++++",
" .+++++++++++++++++++++++",
"  .++++++++++++++++++++++",
"   ......................"};
