/* XPM */
static char * close_inactive_xpm[] = {
"32 30 6 1",
" 	c None",
".	c #B4CDED",
"+	c #797979",
"@	c #929292",
"#	c #B0B0B0",
"$	c #B0CFF7",
"                                ",
"                                ",
"                                ",
"                                ",
"                                ",
"                                ",
"                                ",
"                                ",
"                                ",
" .............................  ",
" .............................  ",
" ...........++....++..........  ",
" ...........@@+..+@@..........  ",
" ............@@++@@...........  ",
" .............@@@@............  ",
" .............#@@#............  ",
" ............+@@@@+...........  ",
" ...........+@@..@@+..........  ",
" ...........@@....@@..........  ",
" .............................  ",
" .............................  ",
" .............................  ",
" .............................  ",
" .............................  ",
" .............................  ",
" .............................  ",
" .............................  ",
" .............................  ",
" .............................  ",
" .$$$$$$$$$$$$$$$$$$$$$$$$$$$$  "};
