/* XPM */
static char * hide_active_xpm[] = {
"32 30 21 1",
" 	c None",
".	c #D5E5FA",
"+	c #CADEF7",
"@	c #CCDFF8",
"#	c #CDE0F8",
"$	c #CFE1F8",
"%	c #D1E2F9",
"&	c #D3E4F9",
"*	c #707070",
"=	c #D7E6FA",
"-	c #868686",
";	c #ECECEC",
">	c #D9E8FB",
",	c #DBE9FB",
"'	c #DDEAFC",
")	c #DFECFC",
"!	c #E1EDFC",
"~	c #E3EEFD",
"{	c #E4EFFD",
"]	c #DBF4FE",
"^	c #B0CFF7",
"                                ",
"                                ",
"                                ",
"                                ",
"                                ",
"                                ",
"                                ",
"                                ",
"                                ",
" .++++++++++++++++++++++++++++  ",
" .@@@@@@@@@@@@@@@@@@@@@@@@@@@@  ",
" .############################  ",
" .$$$$$$$$$$$$$$$$$$$$$$$$$$$$  ",
" .$$$$$$$$$$$$$$$$$$$$$$$$$$$$  ",
" .%%%%%%%%%%%%%%%%%%%%%%%%%%%%  ",
" .&&&&&&&&&&&&&&&&&&&&&&&&&&&&  ",
" ...........********..........  ",
" .==========--------==========  ",
" .==========;;;;;;;;==========  ",
" .>>>>>>>>>>>>>>>>>>>>>>>>>>>>  ",
" .,,,,,,,,,,,,,,,,,,,,,,,,,,,,  ",
" .''''''''''''''''''''''''''''  ",
" .''''''''''''''''''''''''''''  ",
" .))))))))))))))))))))))))))))  ",
" .!!!!!!!!!!!!!!!!!!!!!!!!!!!!  ",
" .~~~~~~~~~~~~~~~~~~~~~~~~~~~~  ",
" .{{{{{{{{{{{{{{{{{{{{{{{{{{{{  ",
" .{{{{{{{{{{{{{{{{{{{{{{{{{{{{  ",
" .]]]]]]]]]]]]]]]]]]]]]]]]]]]]  ",
" .^^^^^^^^^^^^^^^^^^^^^^^^^^^^  "};
