/* XPM */
static char * hide_inactive_xpm[] = {
"32 30 6 1",
" 	c None",
".	c #B4CDED",
"+	c #707070",
"@	c #868686",
"#	c #ECECEC",
"$	c #B0CFF7",
"                                ",
"                                ",
"                                ",
"                                ",
"                                ",
"                                ",
"                                ",
"                                ",
"                                ",
" .............................  ",
" .............................  ",
" .............................  ",
" .............................  ",
" .............................  ",
" .............................  ",
" .............................  ",
" ...........++++++++..........  ",
" ...........@@@@@@@@..........  ",
" ...........########..........  ",
" .............................  ",
" .............................  ",
" .............................  ",
" .............................  ",
" .............................  ",
" .............................  ",
" .............................  ",
" .............................  ",
" .............................  ",
" .............................  ",
" .$$$$$$$$$$$$$$$$$$$$$$$$$$$$  "};
