/* XPM */
static char * left_active_xpm[] = {
"6 20 2 1",
" 	c #58606A",
".	c #D5E5FA",
" .....",
" .....",
" .....",
" .....",
" .....",
" .....",
" .....",
" .....",
" .....",
" .....",
" .....",
" .....",
" .....",
" .....",
" .....",
" .....",
" .....",
" .....",
" .....",
" ....."};
