/* XPM */
static char * left_inactive_xpm[] = {
"6 20 2 1",
" 	c #58606A",
".	c #B4CDED",
" .....",
" .....",
" .....",
" .....",
" .....",
" .....",
" .....",
" .....",
" .....",
" .....",
" .....",
" .....",
" .....",
" .....",
" .....",
" .....",
" .....",
" .....",
" .....",
" ....."};
