/* XPM */
static char * maximize_pressed_xpm[] = {
"32 30 70 1",
" 	c None",
".	c #909CA7",
"+	c #777A7D",
"@	c #707070",
"#	c #909CA8",
"$	c #82888D",
"%	c #CBD5DB",
"&	c #CDDAE4",
"*	c #CAD8E2",
"=	c #82888C",
"-	c #77797C",
";	c #C8D2DA",
">	c #9AB4C6",
",	c #8EABC0",
"'	c #9AB5C7",
")	c #C8D2D9",
"!	c #C6D5DF",
"~	c #86A6BB",
"{	c #BFD0DB",
"]	c #7FA0B7",
"^	c #7F9FB6",
"/	c #717171",
"(	c #BBCDD9",
"_	c #779AB3",
":	c #7799B2",
"<	c #727272",
"[	c #FFFFFF",
"}	c #B8CAD7",
"|	c #7094AF",
"1	c #7093AE",
"2	c #FEFEFE",
"3	c #B4C7D5",
"4	c #688FAA",
"5	c #688EA9",
"6	c #707171",
"7	c #B0C4D3",
"8	c #6189A6",
"9	c #6188A5",
"0	c #86A2B0",
"a	c #0C4560",
"b	c #0D4560",
"c	c #6F7070",
"d	c #87A8B5",
"e	c #0E516A",
"f	c #0F516A",
"g	c #88AEBA",
"h	c #105C74",
"i	c #115C74",
"j	c #89B4BF",
"k	c #12687E",
"l	c #13687E",
"m	c #8ABAC4",
"n	c #147488",
"o	c #157486",
"p	c #147487",
"q	c #92C3CB",
"r	c #178091",
"s	c #177F90",
"t	c #A1C7CD",
"u	c #3398A6",
"v	c #198B9B",
"w	c #3498A7",
"x	c #A0C7CD",
"y	c #698385",
"z	c #A0CCD0",
"A	c #94CED5",
"B	c #8DCBD2",
"C	c #A1CCD0",
"D	c #698386",
"E	c #919DA9",
"                                ",
"                                ",
"                                ",
"                                ",
"                                ",
"                                ",
"   .+@@@@@@@@@@@@@@@@@@@@@@+#   ",
"  #$%&********************&%=#  ",
"  -;>,,,,,,,,,,,,,,,,,,,,,,')+  ",
"  @!~~~~~~~~~~~~~~~~~~~~~~~~!@  ",
"  @{]]]]]]]^////////]]]]]]]]{@  ",
"  @(______:<[[[[[[[[@_______(@  ",
"  @}||||||1<[[2222[[@|||||||}@  ",
"  @34444445<[2@66@[[@44444443@  ",
"  @78888889<[2@88@[[@88888887@  ",
"  @0aaaaaab<[2caa@[[@aaaaaaa0@  ",
"  @deeeeeef<[2@@@@[[@eeeeeeed@  ",
"  @ghhhhhhi<[[[[[[[[@hhhhhhhg@  ",
"  @jkkkkkkl<[[[[[[[[@kkkkkkkj@  ",
"  @mnnnnnnno////////pnnnnnnnm@  ",
"  @qrrrrrrrrssssssssrrrrrrrrq@  ",
"  -tuvvvvvvvvvvvvvvvvvvvvvvwx+  ",
"  #yzABBBBBBBBBBBBBBBBBBBBACDE  ",
"   E+@@@@@@@@@@@@@@@@@@@@@@+E   ",
"                                ",
"                                ",
"                                ",
"                                ",
"                                ",
"                                "};
