/* XPM */
static char * maximize_inactive_xpm[] = {
"32 30 5 1",
" 	c None",
".	c #B4CDED",
"+	c #7F7F7F",
"@	c #ECECEC",
"#	c #B0CFF7",
"                                ",
"                                ",
"                                ",
"                                ",
"                                ",
"                                ",
"                                ",
"                                ",
"                                ",
"  ............................. ",
"  ............................. ",
"  ..........++++++++........... ",
"  ..........++++++++........... ",
"  ..........++@@@@++........... ",
"  ..........++@..@++........... ",
"  ..........++@..@++........... ",
"  ..........++@@@@++........... ",
"  ..........++++++++........... ",
"  ..........++++++++........... ",
"  ............................. ",
"  ............................. ",
"  ............................. ",
"  ............................. ",
"  ............................. ",
"  ............................. ",
"  ............................. ",
"  ............................. ",
"  ............................. ",
"  ............................. ",
"  .############################ "};
