/* XPM */
static char * menu_inactive_xpm[] = {
"25 24 233 2",
"  	c None",
". 	c #65605D",
"+ 	c #58606A",
"@ 	c #303E4B",
"# 	c #D6E0EA",
"$ 	c #BECFD6",
"% 	c #B7CED4",
"& 	c #B8CFD7",
"* 	c #BED0DC",
"= 	c #BCCED8",
"- 	c #BACCD6",
"; 	c #BBCDD7",
"> 	c #B9CBD5",
", 	c #293B47",
"' 	c #D3E0E9",
") 	c #BBCED4",
"! 	c #B5D1D4",
"~ 	c #B3D0D4",
"{ 	c #B7D0D7",
"] 	c #B6CFD4",
"^ 	c #B7D0D5",
"/ 	c #B4CDD2",
"( 	c #283C43",
"_ 	c #D8E1EA",
": 	c #B9CCDA",
"< 	c #B7CFCF",
"[ 	c #BACED7",
"} 	c #B8D0DA",
"| 	c #B4CCD6",
"1 	c #B7CED6",
"2 	c #B7CBD2",
"3 	c #BCD0D7",
"4 	c #B6CCD7",
"5 	c #B4CFDA",
"6 	c #B6CED2",
"7 	c #B1D0D3",
"8 	c #B3D0D6",
"9 	c #BCCAD5",
"0 	c #263D43",
"a 	c #D3DDE6",
"b 	c #B3C7D0",
"c 	c #B0C6D3",
"d 	c #B0CAC9",
"e 	c #B3C9D4",
"f 	c #B5C8CF",
"g 	c #B5C9D2",
"h 	c #B4C8D1",
"i 	c #B5C7D1",
"j 	c #B6CAD3",
"k 	c #B4C8D3",
"l 	c #B9CAD4",
"m 	c #B2CAD4",
"n 	c #B2C4D0",
"o 	c #273F43",
"p 	c #CDDAE0",
"q 	c #ACC3CB",
"r 	c #A9C3D0",
"s 	c #A9C7C7",
"t 	c #ACC4CE",
"u 	c #ACC3C9",
"v 	c #B0C7CD",
"w 	c #ABC4CB",
"x 	c #A9C1CB",
"y 	c #A9C4CD",
"z 	c #A7C0C7",
"A 	c #AEC5CD",
"B 	c #AFC0D0",
"C 	c #A7C1CE",
"D 	c #A8C4CF",
"E 	c #ACC4D0",
"F 	c #AAC2CE",
"G 	c #263F43",
"H 	c #C4D5DC",
"I 	c #9FBCC4",
"J 	c #9EBBC9",
"K 	c #9ABCBD",
"L 	c #9BB9C4",
"M 	c #9ABBC2",
"N 	c #96B7BE",
"O 	c #A0BEC6",
"P 	c #9ABBC4",
"Q 	c #9CBEC8",
"R 	c #96B8C2",
"S 	c #A0BEC8",
"T 	c #9BB8BE",
"U 	c #9EB9CA",
"V 	c #99BBC7",
"W 	c #9CBDC6",
"X 	c #9EB9C4",
"Y 	c #A1BCC7",
"Z 	c #254145",
"` 	c #8EAFB8",
" .	c #8FB0BF",
"..	c #8EB6B8",
"+.	c #91B2C1",
"@.	c #8EB2C0",
"#.	c #92B0BB",
"$.	c #91ACB5",
"%.	c #95B0B9",
"&.	c #92AEBA",
"*.	c #96B3C1",
"=.	c #8DA8B3",
"-.	c #9AAEB7",
";.	c #95ACBE",
">.	c #93AFBA",
",.	c #99B2B9",
"'.	c #8FA9B6",
").	c #233F43",
"!.	c #A1B8C0",
"~.	c #658995",
"{.	c #5E8596",
"].	c #5D888F",
"^.	c #618699",
"/.	c #648398",
"(.	c #576A7B",
"_.	c #515B65",
":.	c #535A62",
"<.	c #4C5662",
"[.	c #4F5B69",
"}.	c #505A66",
"|.	c #545863",
"1.	c #51586A",
"2.	c #4E5760",
"3.	c #50575D",
"4.	c #576D7B",
"5.	c #223F45",
"6.	c #99B1BB",
"7.	c #58808C",
"8.	c #527D90",
"9.	c #53828C",
"0.	c #567F95",
"a.	c #58768E",
"b.	c #4B5D6B",
"c.	c #000000",
"d.	c #4E5B6B",
"e.	c #244149",
"f.	c #97B2BD",
"g.	c #5A8190",
"h.	c #568398",
"i.	c #568692",
"j.	c #568098",
"k.	c #5B7F95",
"l.	c #2D3741",
"m.	c #A0B8C4",
"n.	c #528B96",
"o.	c #59839B",
"p.	c #5A879C",
"q.	c #588695",
"r.	c #638495",
"s.	c #33444C",
"t.	c #9FB7C1",
"u.	c #5A8E9B",
"v.	c #6589A3",
"w.	c #668BA5",
"x.	c #628B9F",
"y.	c #53585C",
"z.	c #404E57",
"A.	c #A4B5BF",
"B.	c #7AA2AE",
"C.	c #718BA4",
"D.	c #6B8AA6",
"E.	c #7092AB",
"F.	c #629BAF",
"G.	c #6C92A7",
"H.	c #6A8FA9",
"I.	c #6991AB",
"J.	c #547177",
"K.	c #597579",
"L.	c #92C2C4",
"M.	c #7FA5B0",
"N.	c #6F9FAB",
"O.	c #669AA5",
"P.	c #6C9AAA",
"Q.	c #739CB2",
"R.	c #6D96AA",
"S.	c #7595AA",
"T.	c #769AB2",
"U.	c #749AB1",
"V.	c #7096AD",
"W.	c #789EB3",
"X.	c #7498AE",
"Y.	c #35434C",
"Z.	c #536F73",
"`.	c #A8B9C3",
" +	c #B3CED5",
".+	c #AFCAD3",
"++	c #B2C9D1",
"@+	c #B7CBD6",
"#+	c #B1C4D2",
"$+	c #B0C5D6",
"%+	c #B3CDDC",
"&+	c #AFC9D6",
"*+	c #B5CBD8",
"=+	c #B5C8D6",
"-+	c #B3C6D4",
";+	c #B2C8D5",
">+	c #B1C9D5",
",+	c #B0CBD6",
"'+	c #B3CBD7",
")+	c #7CAAB7",
"!+	c #B0CAD7",
"~+	c #59767E",
"{+	c #434F5B",
"]+	c #2E4148",
"^+	c #2C3D45",
"/+	c #2E3D44",
"(+	c #2C3A43",
"_+	c #2E3F47",
":+	c #2B3D47",
"<+	c #2C3E48",
"[+	c #273943",
"}+	c #2D3E45",
"|+	c #2B3C43",
"1+	c #2D4046",
"2+	c #2C3F46",
"3+	c #293D44",
"4+	c #679CAE",
"5+	c #89A7BF",
"6+	c #AFD0E1",
"7+	c #C4D5E7",
"8+	c #BFD6E4",
"9+	c #C5D8E7",
"0+	c #C7DBE2",
"a+	c #BFD6DC",
"b+	c #C3DBDF",
"c+	c #C4DCE0",
"d+	c #C0D8DC",
"e+	c #C7DEE4",
"f+	c #C1DADF",
"g+	c #C6DEE2",
"h+	c #C2DADE",
"i+	c #C6DBE0",
"j+	c #C1D9DD",
". + + + + + + + + + + + + + + + + + + + + + + + . ",
"@ # $ % & * = = = = = = = = - ; ; - > * & % $ # @ ",
", ' ) ! ~ { % % % % % % % % ] ^ ^ ] / { ~ ! ) ' , ",
"( _ - : < [ } | } 1 2 3 4 5 6 7 8 ; 9 [ < : - _ ( ",
"0 a b c d e f g h h i i j k l m m n j e d c b a 0 ",
"o p q r s t u v w x y t z A B C D E F t s r q p o ",
"G H I J K L M N O P Q R S T U V W X Y L K J I H G ",
"Z ) `  ...+.@.#.$.%.&.*.=.-.;.>.,.-.'.+... .` ) Z ",
").!.~.{.].^./.(._.:.<.[.}.|.1.2.3.4.^.^.].{.~.!.).",
"5.6.7.8.9.0.a.b.c.c.c.c.c.c.c.c.c.d.0.0.9.8.7.6.5.",
"e.f.g.h.i.j.k.j.d.c.c.c.c.c.c.c.d.j.j.j.i.h.g.f.e.",
"l.m.n.o.p.q.r.q.q.d.c.c.c.c.c.d.q.q.q.q.p.o.n.m.l.",
"s.t.u.v.w.x.~.x.x.x.y.c.c.c.d.x.x.x.x.x.w.v.u.t.s.",
"z.A.B.C.D.E.F.E.E.E.G.d.c.d.H.E.I.E.E.E.D.C.B.A.z.",
"J.K.L.M.N.O.P.O.O.O.Q.R.d.S.T.U.V.W.X.O.N.M.L.K.J.",
"E Y.Z.`. +.+++@+#+$+%+&+*+=+-+;+>+,+'+.+ +`.Z.Y.E ",
")+!+~+{+]+^+/+(+_+:+:+<+[+_+}+|+1+2+3+^+]+{+~+!+)+",
"4+5+6+7+8+9+0+a+b+b+c+d+e+f+d+g+h+i+j+9+8+7+6+5+4+",
"                                                  ",
"                                                  ",
"                                                  ",
"                                                  ",
"                                                  ",
"                                                  "};
