/* XPM */
static char * right_active_xpm[] = {
"6 20 2 1",
" 	c #D5E5FA",
".	c #58606A",
"     .",
"     .",
"     .",
"     .",
"     .",
"     .",
"     .",
"     .",
"     .",
"     .",
"     .",
"     .",
"     .",
"     .",
"     .",
"     .",
"     .",
"     .",
"     .",
"     ."};
