/* XPM */
static char * right_inactive_xpm[] = {
"6 20 2 1",
" 	c #B4CDED",
".	c #58606A",
"     .",
"     .",
"     .",
"     .",
"     .",
"     .",
"     .",
"     .",
"     .",
"     .",
"     .",
"     .",
"     .",
"     .",
"     .",
"     .",
"     .",
"     .",
"     .",
"     ."};
