/* XPM */
static char * title_5_inactive_xpm[] = {
"5 30 2 1",
" 	c #6E747D",
".	c #B4CDED",
"     ",
".....",
".....",
".....",
".....",
".....",
".....",
".....",
".....",
".....",
".....",
".....",
".....",
".....",
".....",
".....",
".....",
".....",
".....",
".....",
".....",
".....",
".....",
".....",
".....",
".....",
".....",
".....",
".....",
"....."};
