/* XPM */
static char * title_1_active_xpm[] = {
"5 30 24 1",
" 	c #3B5A82",
".	c #E3EBF6",
"+	c #E1EBF8",
"@	c #DDEAFB",
"#	c #DAE9FD",
"$	c #D5E5FA",
"%	c #D7E6F9",
"&	c #D9E7F9",
"*	c #CADEF7",
"=	c #CCDFF8",
"-	c #CDE0F8",
";	c #CFE1F8",
">	c #D1E2F9",
",	c #D3E4F9",
"'	c #D7E6FA",
")	c #D9E8FB",
"!	c #DBE9FB",
"~	c #DDEAFC",
"{	c #DFECFC",
"]	c #E1EDFC",
"^	c #E3EEFD",
"/	c #E4EFFD",
"(	c #DBF4FE",
"_	c #B0CFF7",
"     ",
".....",
"+++++",
"@@@@@",
"#####",
"$$$$$",
"%%%%%",
"&&&&&",
"&&&&&",
"*****",
"=====",
"-----",
";;;;;",
";;;;;",
">>>>>",
",,,,,",
"$$$$$",
"'''''",
"'''''",
")))))",
"!!!!!",
"~~~~~",
"~~~~~",
"{{{{{",
"]]]]]",
"^^^^^",
"/////",
"/////",
"(((((",
"_____"};
