/* XPM */
static char * top_left_inactive_xpm[] = {
"34 30 11 1",
" 	c None",
".	c #67707B",
"+	c #6D747D",
"@	c #6E747D",
"#	c #A2B1C2",
"$	c #B4CDED",
"%	c #8998A8",
"&	c #A7B9CC",
"*	c #7C8997",
"=	c #7C8A98",
"-	c #7C8998",
"  .+@@@@@@@@@@@@@@@@@@@@@@@@@@@@@@",
"  #$$$$$$$$$$$$$$$$$$$$$$$$$$$$$$$",
" %$$$$$$$$$$$$$$$$$$$$$$$$$$$$$$$$",
" &$$$$$$$$$$$$$$$$$$$$$$$$$$$$$$$$",
"*$$$$$$$$$$$$$$$$$$$$$$$$$$$$$$$$$",
"=$$$$$$$$$$$$$$$$$$$$$$$$$$$$$$$$$",
"-$$$$$$$$$$$$$$$$$$$$$$$$$$$$$$$$$",
"-$$$$$$$$$$$$$$$$$$$$$$$$$$$$$$$$$",
"-$$$$$$$$$$$$$$$$$$$$$$$$$$$$$$$$$",
"-$$$$$$$$$$$$$$$$$$$$$$$$$$$$$$$$$",
"-$$$$$$$$$$$$$$$$$$$$$$$$$$$$$$$$$",
"-$$$$$$$$$$$$$$$$$$$$$$$$$$$$$$$$$",
"-$$$$$$$$$$$$$$$$$$$$$$$$$$$$$$$$$",
"-$$$$$$$$$$$$$$$$$$$$$$$$$$$$$$$$$",
"-$$$$$$$$$$$$$$$$$$$$$$$$$$$$$$$$$",
"-$$$$$$$$$$$$$$$$$$$$$$$$$$$$$$$$$",
"-$$$$$$$$$$$$$$$$$$$$$$$$$$$$$$$$$",
"-$$$$$$$$$$$$$$$$$$$$$$$$$$$$$$$$$",
"-$$$$$$$$$$$$$$$$$$$$$$$$$$$$$$$$$",
"-$$$$$$$$$$$$$$$$$$$$$$$$$$$$$$$$$",
"-$$$$$$$$$$$$$$$$$$$$$$$$$$$$$$$$$",
"-$$$$$$$$$$$$$$$$$$$$$$$$$$$$$$$$$",
"-$$$$$$$$$$$$$$$$$$$$$$$$$$$$$$$$$",
"-$$$$$$$$$$$$$$$$$$$$$$$$$$$$$$$$$",
"-$$$$$$$$$$$$$$$$$$$$$$$$$$$$$$$$$",
"-$$$$$$$$$$$$$$$$$$$$$$$$$$$$$$$$$",
"-$$$$$$$$$$$$$$$$$$$$$$$$$$$$$$$$$",
"-$$$$$$$$$$$$$$$$$$$$$$$$$$$$$$$$$",
"-$$$$$$$$$$$$$$$$$$$$$$$$$$$$$$$$$",
"-$$$$$$$$$$$$$$$$$$$$$$$$$$$$$$$$$"};
