/* XPM */
static char * top_right_inactive_xpm[] = {
"27 30 9 1",
" 	c None",
".	c #6E747D",
"+	c #68717C",
"@	c #B4CDED",
"#	c #A9B8C8",
"$	c #8F9EAF",
"%	c #778391",
"&	c #7F8C9A",
"*	c #7F8C9B",
"........................+  ",
"@@@@@@@@@@@@@@@@@@@@@@@@#  ",
"@@@@@@@@@@@@@@@@@@@@@@@@@$ ",
"@@@@@@@@@@@@@@@@@@@@@@@@@@%",
"@@@@@@@@@@@@@@@@@@@@@@@@@@&",
"@@@@@@@@@@@@@@@@@@@@@@@@@@*",
"@@@@@@@@@@@@@@@@@@@@@@@@@@*",
"@@@@@@@@@@@@@@@@@@@@@@@@@@*",
"@@@@@@@@@@@@@@@@@@@@@@@@@@*",
"@@@@@@@@@@@@@@@@@@@@@@@@@@*",
"@@@@@@@@@@@@@@@@@@@@@@@@@@*",
"@@@@@@@@@@@@@@@@@@@@@@@@@@*",
"@@@@@@@@@@@@@@@@@@@@@@@@@@*",
"@@@@@@@@@@@@@@@@@@@@@@@@@@*",
"@@@@@@@@@@@@@@@@@@@@@@@@@@*",
"@@@@@@@@@@@@@@@@@@@@@@@@@@*",
"@@@@@@@@@@@@@@@@@@@@@@@@@@*",
"@@@@@@@@@@@@@@@@@@@@@@@@@@*",
"@@@@@@@@@@@@@@@@@@@@@@@@@@*",
"@@@@@@@@@@@@@@@@@@@@@@@@@@*",
"@@@@@@@@@@@@@@@@@@@@@@@@@@*",
"@@@@@@@@@@@@@@@@@@@@@@@@@@*",
"@@@@@@@@@@@@@@@@@@@@@@@@@@*",
"@@@@@@@@@@@@@@@@@@@@@@@@@@*",
"@@@@@@@@@@@@@@@@@@@@@@@@@@*",
"@@@@@@@@@@@@@@@@@@@@@@@@@@*",
"@@@@@@@@@@@@@@@@@@@@@@@@@@*",
"@@@@@@@@@@@@@@@@@@@@@@@@@@*",
"@@@@@@@@@@@@@@@@@@@@@@@@@@*",
"@@@@@@@@@@@@@@@@@@@@@@@@@@*"};
